<?xml version="1.0" standalone="no"?>
<!DOCTYPE svg PUBLIC "-//W3C//DTD SVG 1.1//EN" "http://www.w3.org/Graphics/SVG/1.1/DTD/svg11.dtd" >
<svg>
<metadata>
Created by FontForge 20090914 at Tue Feb 25 17:21:22 2014
 By www-data
Terminator Real NFI v1.0 - copyright (c) 2002 - Thomas W. Otto - Norfok Inc. - www.norfok.com
</metadata>
<defs>
<font id="TerminatorRealNFI" horiz-adv-x="1000" >
  <font-face 
    font-family="Terminator Real NFI"
    font-weight="400"
    font-stretch="normal"
    units-per-em="1000"
    panose-1="0 0 0 0 0 0 0 0 0 0"
    ascent="800"
    descent="-200"
    x-height="738"
    cap-height="740"
    bbox="-2 -202 1203 1000"
    underline-thickness="18"
    underline-position="-104"
    unicode-range="U+0020-U+20AC"
  />
<missing-glyph horiz-adv-x="301" 
 />
    <glyph glyph-name=".notdef" horiz-adv-x="301" 
 />
    <glyph glyph-name="space" unicode=" " horiz-adv-x="500" 
 />
    <glyph glyph-name="exclam" unicode="!" horiz-adv-x="266" 
d="M241 188h-190v-188h190v188zM51 740v-465h191v465h-191z" />
    <glyph glyph-name="quotedbl" unicode="&#x22;" horiz-adv-x="505" 
d="M34 588h53v-66h-53v-150c111.333 10 179.333 60.667 204 152v215h-204v-151zM269 377c0 -4 5.00098 -6 15.001 -6c45.333 0 87.666 15.667 126.999 47c41.333 33.333 62 71 62 113v208h-211v-151h58v-66h-51v-145z" />
    <glyph glyph-name="numbersign" unicode="#" horiz-adv-x="1207" 
d="M382 605h505l18 135h206l-18 -135h83l-27 -205h-82l-11 -84h82l-27 -205h-81l-14 -111h-206l14 111h-505l-14 -111h-206l14 111h-90l27 205h89l11 84h-89l27 205h88l18 135h206zM345 316h505l11 84h-505z" />
    <glyph glyph-name="dollar" unicode="$" horiz-adv-x="1203" 
d="M700 809l-196.001 0.00195312v-72h-257c-94.667 0 -156.667 -24.333 -186 -73c-18 -28.667 -27 -80 -27 -154c0 -76.667 9 -129.667 27 -159c29.333 -48.667 91.333 -73 186 -73h735c0 -28.667 -2.33301 -48.334 -7 -59.001c-7.33301 -17.333 -22.666 -26 -45.999 -26
h-851v-193h426v-62h196v62h240c103.333 0 171.333 26 204 78c20 31.333 30 85.666 30 162.999c0 76 -10 128 -30 156c-32 45.333 -100 68 -204 68h-665c-18.667 0 -31 9 -37 27c-3.33301 10.667 -5 30.667 -5 60h897v185h-430v72z" />
    <glyph glyph-name="percent" unicode="%" horiz-adv-x="1194" 
d="M96 662c46.667 44.667 103 67 169 67s122.667 -22.333 170 -67c46.667 -45.333 70 -99.333 70 -162s-23.333 -116.667 -70 -162c-47.333 -44.667 -104 -67 -170 -67s-122.333 22.333 -169 67c-47.333 45.333 -71 99.333 -71 162s23.667 116.667 71 162zM569 735h69v-735
h-69v735zM307 547h-83v-80h83v80zM767 397c46.667 44.667 103 67 169 67s122.667 -22.333 170 -67c46.667 -45.333 70 -99.333 70 -162s-23.333 -116.667 -70 -162c-47.333 -44.667 -104 -67 -170 -67s-122.333 22.333 -169 67c-47.333 45.333 -71 99.333 -71 162
s23.667 116.667 71 162zM978 282h-83v-80h83v80z" />
    <glyph glyph-name="ampersand" unicode="&#x26;" horiz-adv-x="1180" 
d="M234 740c-86 0 -142.332 -21 -168.999 -63c-16 -25.333 -24 -72.333 -24 -141c0 -43.333 10 -77.333 30 -102c-26 -35.333 -39 -89.333 -39 -162c0 -92 10.333 -155 31 -189c33.333 -55.333 105 -83 215 -83h622c49.333 -0 92.666 17.333 129.999 52
c34.667 32 52 65.667 52 101l71 -15v199l-71 19v114h-188v-71l-640 150h828v191h-848zM280.001 192c-22 0 -36.333 7.66699 -43 23c-4 10 -6 27.667 -6 53v69l629 -145h-580z" />
    <glyph glyph-name="quotesingle" unicode="'" horiz-adv-x="240" 
d="M83 588v-64.002h-50v-127c53.333 0.666992 97.333 13.334 132 38.001s52 56.334 52 95.001v210h-184v-152h50z" />
    <glyph glyph-name="parenleft" unicode="(" horiz-adv-x="278" 
d="M242 674l0.000976562 160c-56.667 0 -104.334 -18.667 -143.001 -56c-38.667 -36.667 -58 -80.667 -58 -132v-538c0 -47.333 19.333 -92 58 -134c41.333 -44.667 89 -67 143 -67v159h-55v608h55z" />
    <glyph glyph-name="parenright" unicode=")" horiz-adv-x="278" 
d="M40 674l-0.000976562 160c56.667 0 104.334 -18.667 143.001 -56c38.667 -36.667 58 -80.667 58 -132v-538c0 -47.333 -19.333 -92 -58 -134c-41.333 -44.667 -89 -67 -143 -67v159h55v608h-55z" />
    <glyph glyph-name="asterisk" unicode="*" horiz-adv-x="520" 
d="M210 608l-118 -65l61 -92h-118v-180h109l-50 -94l118 -65l55 85l59 -85l114 65l-51 94h103v180h-105l49 90l-119 67l-52 -89z" />
    <glyph glyph-name="plus" unicode="+" horiz-adv-x="720" 
d="M720 420v-120h-300v-300h-120v300h-300v120h300v300h120v-300h300z" />
    <glyph glyph-name="comma" unicode="," horiz-adv-x="284" 
d="M33 205h215v-205h-3c-1.33301 -58.667 -29 -108.667 -83 -150c-44.667 -34.667 -87.667 -52 -129 -52v138h52v64h-52v205z" />
    <glyph glyph-name="hyphen" unicode="-" horiz-adv-x="610" 
d="M583 271v168h-558v-168h558z" />
    <glyph glyph-name="period" unicode="." horiz-adv-x="274" 
d="M241 0v205h-215v-205h215z" />
    <glyph glyph-name="slash" unicode="/" horiz-adv-x="1051" 
d="M775 740l-740 -740h260l739 740h-259z" />
    <glyph glyph-name="zero" unicode="0" horiz-adv-x="1104" 
d="M1075 224c0 -70.667 -21.333 -126.001 -64 -166.001c-42 -38.667 -99 -58 -171 -58h-571c-70 0 -126.667 20 -170 60c-44 41.333 -66 96 -66 164v303c5.33301 61.333 29.333 112 72 152c44 40.667 99 61 165 61h570c75.333 0 134 -22 176 -66
c39.333 -41.333 59 -97.666 59 -168.999v-281zM882 487.999c0 20 -2 34.333 -6 43c-6 12.667 -18 19 -36 19h-571c-20 0 -33 -5 -39 -15c-4 -6 -6 -17 -6 -33v-246c0 -41.333 14.667 -62 44 -62h570c19.333 0 32.333 5.33301 39 16c3.33301 6.66699 5 18.667 5 36v242z" />
    <glyph glyph-name="one" unicode="1" horiz-adv-x="536" 
d="M500 547c0 64 -7.66797 108 -23.001 132c-26 40 -80.333 60 -163 60c-55.333 0 -104.666 -20.667 -147.999 -62l-127 -119v-274l273 274v-558h188v547z" />
    <glyph glyph-name="two" unicode="2" horiz-adv-x="891" 
d="M232 190c0 37.333 3.66699 62.001 11 74.001c8 12 24.333 18 49 18h566v290c0 54 -6.66699 91.667 -20 113c-22.667 36.667 -69 55 -139 55h-658v-182h568c38 0 62 -6.66699 72 -20c6.66699 -10 10 -34.667 10 -74h-460c-82 0 -135.667 -20.667 -161 -62
c-15.333 -24.667 -23 -71.334 -23 -140.001v-262h811v190h-626z" />
    <glyph glyph-name="three" unicode="3" horiz-adv-x="1115" 
d="M848 740c67.333 0 123.667 -23 169 -69c45.333 -45.333 68 -101.333 68 -168v-268c0 -70.667 -22 -127.667 -66 -171c-43.333 -42.667 -100.333 -64 -171 -64h-799v193h799c29.333 0 44 21 44 63v17h-843v191h844v24c0 41.333 -15 62 -45 62h-799v190h799z" />
    <glyph glyph-name="four" unicode="4" horiz-adv-x="1238" 
d="M311 392c-27.333 0 -45.667 8.99902 -55 26.999c-6.66699 12.667 -10 33.334 -10 62.001v259h-203v-279c0 -90.667 11 -151.667 33 -183c36 -50.667 113 -76 231 -76h626v-202h193v202h77v190h-77v348h-193v-348h-622z" />
    <glyph glyph-name="five" unicode="5" horiz-adv-x="1142" 
d="M47 740l0.000976562 -464h870c-0.666992 -27.333 -3.33398 -46 -8.00098 -56c-8 -18 -24 -27 -48 -27h-814v-193h825c100 0 166 19 198 57c25.333 31.333 38.333 93 39 185v2c0 80.667 -13.667 136.667 -41 168c-34 38.667 -99 58 -195 58h-570
c-26 0 -43.667 7.66699 -53 23c-6.66699 12 -10 31.667 -10 59h823v188h-1016z" />
    <glyph glyph-name="six" unicode="6" horiz-adv-x="1134" 
d="M268 740c-100.667 0 -166.999 -29.332 -198.999 -87.999c-18.667 -34.667 -28 -97 -28 -187v-193c0 -86 9.33301 -146.667 28 -182c32.667 -60 99 -90 199 -90h613c91.333 0 153.666 23 186.999 69c24.667 34 37 89.333 37 166c0 73.333 -12.333 126.666 -37 159.999
c-34 46 -96.333 69 -187 69h-646c0 27.333 3.66699 47 11 59c10 16 29 24 57 24h609v193h-644zM913.001 273.001c0 -26.667 -2.33301 -45 -7 -55c-8 -15.333 -25 -23 -51 -23h-552c-30 0 -49.667 8 -59 24c-6 10 -9 28 -9 54h678z" />
    <glyph glyph-name="seven" unicode="7" horiz-adv-x="1112" 
d="M46 549l851 -0.000976562l-832 -549h332l596 395c58.667 38.667 88 87.334 88 146.001c0 66 -8.33301 111.667 -25 137c-28 41.333 -86.667 62 -176 62h-834v-191z" />
    <glyph glyph-name="eight" unicode="8" horiz-adv-x="1134" 
d="M853 0c109.333 0 180.668 23 214.001 69c20 28 30.333 83.333 31 166c0 50 -16 96 -48 138c30.667 53.333 46 104 46 152c0 78 -10 129.667 -30 155c-32 40 -102.667 60 -212 60h-568c-110.667 0 -182.334 -20 -215.001 -60c-22 -26.667 -33 -79.667 -33 -159
c0 -51.333 16 -103.333 48 -156c-31.333 -44 -47 -97 -47 -159c0 -68.667 12 -117 36 -145c35.333 -40.667 105.333 -61 210 -61h568zM901.002 558c0 -31.333 -5 -53.667 -15 -67c-10 -14 -27.667 -21 -53 -21h-530c-30 0 -49.667 9.33301 -59 28c-6 10.667 -9 30.667 -9 60
h666zM903.002 272.999c0 -28 -3.00098 -46.334 -9.00098 -55.001c-9.33301 -14.667 -29.666 -22 -60.999 -22h-530c-27.333 0 -46 7 -56 21c-8 10.667 -12 29.334 -12 56.001h668z" />
    <glyph glyph-name="nine" unicode="9" horiz-adv-x="1143" 
d="M870 0c160 0 239.998 79.332 239.998 237.999v259c0 80.667 -15.333 138.667 -46 174c-40 46 -113 69 -219 69h-566c-102 0 -170.333 -22.333 -205 -67c-25.333 -32 -38 -87.667 -38 -167c0 -75.333 14.333 -129.666 43 -162.999c36.667 -42.667 103.334 -64 200.001 -64
h638c0 -28 -3 -47.333 -9 -58c-9.33301 -18 -29.666 -27 -60.999 -27h-599v-194h622zM846.998 549.999c31.333 0 51.667 -9 61 -27c6 -10.667 9 -30 9 -58h-669c0 28.667 3 49 9 61c8 16.667 23 25 45 25z" />
    <glyph glyph-name="colon" unicode=":" horiz-adv-x="295" 
d="M256 399v205h-215v-205h215zM256 110v205h-215v-205h215z" />
    <glyph glyph-name="semicolon" unicode=";" horiz-adv-x="292" 
d="M36 314h215v-314h-3c-1.33301 -58.667 -29 -108.667 -83 -150c-44.667 -34.667 -87.667 -52 -129 -52v138h52v64h-52v314zM36 603h215v-205h-215v205z" />
    <glyph glyph-name="less" unicode="&#x3c;" horiz-adv-x="880" 
d="M810 740l-573 -162.999c-115.333 -59.333 -173 -129.333 -173 -210c0 -49.333 17 -91.333 51 -126c23.333 -24.667 64 -52.334 122 -83.001l573 -161v212l-554 158l554 158v215z" />
    <glyph glyph-name="equal" unicode="=" horiz-adv-x="771" 
d="M721 400v205h-674v-205h674zM721 111v205h-674v-205h674z" />
    <glyph glyph-name="greater" unicode="&#x3e;" horiz-adv-x="480" 
d="M183 610l297 -300l-297 -300h-183l298 300l-298 300h183z" />
    <glyph glyph-name="question" unicode="?" horiz-adv-x="1156" 
d="M40 740l-0.000976562 -190h895v-86h-442v-185h375c80 0 144 22.667 192 68c45.333 43.333 68 99 68 167s-23.333 122.667 -70 164c-47.333 41.333 -110.666 62 -189.999 62h-828zM684.999 0v191h-192v-191h192z" />
    <glyph glyph-name="A" unicode="A" horiz-adv-x="1059" 
d="M29 577c0 60 19.333 105 58 135c32 25.333 75 38 129 38s104.667 -23.333 152 -70l691 -680h-293l-189 190h-361v-190h-187v577zM216 349h202l-202 203v-203z" />
    <glyph glyph-name="B" unicode="B" horiz-adv-x="1157" 
d="M51 0h821c106 -0 176.333 21.333 211 64c24.667 30.667 37 85.667 37 165c0 38.667 -19.333 86.667 -58 144c28 28 42 74 42 138c0 82.667 -9.66699 137.667 -29 165c-31.333 43.333 -99.333 65 -204 65h-819zM247 467v83h617c19.333 0 32 -8.33301 38 -25
c3.33301 -10 5 -29.333 5 -58h-660zM247 191v85h660c-0.666992 -30 -2.66699 -50 -6 -60c-6 -17.333 -18.333 -26 -37 -26z" />
    <glyph glyph-name="C" unicode="C" horiz-adv-x="1147" 
d="M1098 195v-193.999h-815c-70 0 -126.667 20 -170 60c-44 41.333 -66 96 -66 164v303c5.33301 61.333 29.333 111.666 72 150.999c44 40.667 99 61 165 61h812v-189h-813c-20 0 -33 -5 -39 -15c-4 -6 -6 -17 -6 -33v-246c0 -41.333 14.667 -62 44 -62h816z" />
    <glyph glyph-name="D" unicode="D" horiz-adv-x="1131" 
d="M50 740l807 -0.000976562c70 0 126.667 -20 170 -60c44.667 -41.333 67 -96 67 -164v-303c-5.33301 -61.333 -29 -111.666 -71 -150.999c-44 -41.333 -99 -62 -165 -62h-808v740zM240 189.999h618c20 0 33 5 39 15c4 6 6 17 6 33v246c0 41.333 -14.667 62 -44 62h-619
v-356z" />
    <glyph glyph-name="E" unicode="E" horiz-adv-x="1123" 
d="M284 739c-67.333 0 -123.667 -22.667 -169 -68c-45.333 -46 -68 -102 -68 -168v-268c0 -70.667 22 -127.667 66 -171c43.333 -42.667 100.333 -64 171 -64h799v193h-799c-29.333 0 -44 21 -44 63v17h843v191h-844v24c0 41.333 15 62 45 62h799v190z" />
    <glyph glyph-name="F" unicode="F" 
d="M854 853l-157.999 -0.000976562c-44.667 -0.666992 -82.334 -15.667 -113.001 -45c-32 -30 -47.667 -67 -47 -111v-156h-131v-154h131v-387h-536v1000h1000v-1000h-304v387h130l28 154h-158v116c0.666992 24.667 15 40.334 43 47.001h115v149z" />
    <glyph glyph-name="G" unicode="G" 
d="M0 377c38.667 -20 85.333 -31.002 140 -33.002c-4 -29.333 0 -56.666 12 -81.999c-57.333 -7.33301 -108 -17.666 -152 -30.999v146zM-0.000976562 61.998c9.33301 22 26.666 39.666 51.999 52.999c44.667 24.667 111.334 37 200.001 37
c9.33301 -9.33301 21 -18.666 35 -27.999c5.33301 -6 21 -17.667 47 -35l2 -2c22 -17.333 37 -42 45 -74v-13h-381v62zM133.999 770.997c28 7.33301 56 -1.33008 84 -25.9971h2c32.667 -26.667 55.334 -63.334 68.001 -110.001c13.333 -44.667 13 -86.334 -1 -125.001
c-13.333 -31.333 -33.333 -51 -60 -59c-29.333 -4.66699 -58 4.66602 -86 27.999c-33.333 28 -56.666 64 -69.999 108c-12.667 46 -11.334 87.667 3.99902 125v1c11.333 32.667 30.666 52 57.999 58h1zM999.999 0.000976562l-461.003 -0.000976562
c4.66699 20.667 7.33398 42 8.00098 64c4.66699 90 -45.333 168.667 -150 236h-2c-31.333 18 -48.666 35.667 -51.999 53v2c0.666992 18.667 22 43.667 64 75h2c64 51.333 92.667 119 86 203c-3.33301 51.333 -16.333 95 -39 131h18l175 137v1h-453
c-77.333 -1.33301 -142.666 -20.666 -195.999 -57.999v156h1000v-1000zM933.996 540h-135v133h-147v-133h-133v-147h133v-134h147v134h135v147z" />
    <glyph glyph-name="H" unicode="H" horiz-adv-x="1157" 
d="M55 740v-740h194v279h665v-279h196v740h-193v-273h-669v273h-193z" />
    <glyph glyph-name="I" unicode="I" horiz-adv-x="300" 
d="M48 740v-740h206v740h-206z" />
    <glyph glyph-name="J" unicode="J" 
d="M784 876c-14 4.66699 -37.6699 0 -71.0029 -14c-27.333 -11.333 -54 -25.666 -80 -42.999c-34.667 10.667 -81 15.334 -139 14.001c-59.333 -0.666992 -102.666 -7 -129.999 -19c-42 30 -80 49.333 -114 58c-11.333 2.66699 -21.333 4 -30 4l-10 -1l-5 -11
c-3.33301 -9.33301 -6.33301 -19.666 -9 -30.999c-7.33301 -35.333 -5.66602 -72 5.00098 -110c-20.667 -26.667 -34.334 -47.334 -41.001 -62.001c-11.333 -24 -17 -53.667 -17 -89c0 -46.667 7.33301 -90.667 22 -132c2.66699 -6 6.66699 -14.333 12 -25
c19.333 -34.667 47.333 -62.334 84 -83.001c38 -20.667 87 -34 147 -40h3c-10 -8 -18.667 -17.333 -26 -28c-9.33301 -13.333 -14.666 -26.666 -15.999 -39.999c-11.333 -7.33301 -26.666 -12 -45.999 -14c-19.333 -1.33301 -37.666 0.666992 -54.999 6
c-10 2.66699 -20.667 10.334 -32 23.001l-29 36c-11.333 14.667 -22.333 25 -33 31c-13.333 8 -28.333 10.333 -45 7c-8 -1.33301 -11.667 -4.33301 -11 -9c0.666992 -4 4.66699 -8.33301 12 -13c12.667 -8.66699 23 -17.334 31 -26.001
c11.333 -12 20.666 -26.667 27.999 -44c9.33301 -22.667 20.666 -40 33.999 -52c21.333 -20 50 -30 86 -30c21.333 0 39.666 1.33301 54.999 4l1 -104c0 -12.667 -7.66699 -24.667 -23 -36c-1.33301 -0.666992 -2.66602 -1.66699 -3.99902 -3h-338v1000h1000v-1000h-323
l-2 2c-15.333 12 -23.333 24 -24 36v4c0 4.66699 0.333008 14.334 1 29.001v82c0 41.333 -3.33301 71.666 -10 90.999c-7.33301 19.333 -20.666 35.333 -39.999 48c13.333 1.33301 26 3 38 5c51.333 7.33301 92 19.666 122 36.999c32.667 19.333 56.667 46.333 72 81
c5.33301 12 9 21.667 11 29c10 35.333 15.333 74.333 16 117c0 48 -9.66699 89 -29 123c-6 10.667 -13.333 21.334 -22 32.001c-8.66699 11.333 -13.667 18 -15 20c6.66699 37.333 8 69.666 4 96.999c-3.33301 17.333 -8.33301 31.666 -15 42.999z" />
    <glyph glyph-name="K" unicode="K" horiz-adv-x="1139" 
d="M253 420c20 43.333 64.667 85.999 134 127.999l321 191h382l-634 -371l640 -368h-387l-334 191c-62 34.667 -102.667 75.334 -122 122.001v-313h-206v739h206v-319z" />
    <glyph glyph-name="L" unicode="L" 
d="M152 163h151v451h-151v-451zM290 810c-15.333 14.667 -35.666 22 -60.999 22c-26 0 -46.667 -7.33301 -62 -22c-16 -14.667 -24 -33.334 -24 -56.001c0 -22 7.66699 -40.333 23 -55c16 -15.333 36.333 -23 61 -23h1c25.333 0 46.333 7.66699 63 23
c14.667 14.667 22 33 22 55c-0.666992 22.667 -8.33398 41.334 -23.001 56.001zM1000 0h-1000v1000h1000v-1000zM538 614l-151 -0.000976562c1.33301 -28 1.33301 -178.333 0 -451h151v252c0 16 1.66699 28.333 5 37c15.333 36 41.333 54 78 54c50.667 0 76 -34 76 -102
v-241h151v259c0 66.667 -16.667 117.667 -50 153c-30 33.333 -71.333 50 -124 50c-36 0 -66.667 -8.66699 -92 -26c-16 -11.333 -30.667 -27.666 -44 -48.999v64z" />
    <glyph glyph-name="M" unicode="M" 
d="M0 0h1000v1000h-1000v-1000zM809 720l-309 -228l-308 228h617zM870 690v-410h-740v410l370 -273z" />
    <glyph glyph-name="N" unicode="N" horiz-adv-x="1127" 
d="M51 0h186.999v552l451 -440c91.333 -80 159.333 -120 204 -120c51.333 0 95.333 19.333 132 58c37.333 39.333 56 88 56 146v544h-188v-544l-503 484c-47.333 46.667 -98 70 -152 70c-49.333 0 -92.666 -17 -129.999 -51c-38 -34.667 -57 -76 -57 -124v-575z" />
    <glyph glyph-name="O" unicode="O" horiz-adv-x="1134" 
d="M1091 224c0 -70.667 -21.333 -126.001 -64 -166.001c-42 -38.667 -99 -58 -171 -58h-571c-70 0 -126.667 20 -170 60c-44 41.333 -66 96 -66 164v303c5.33301 61.333 29.333 112 72 152c44 40.667 99 61 165 61h570c75.333 0 134 -22 176 -66
c39.333 -41.333 59 -97.666 59 -168.999v-281zM898 487.999c0 20 -2 34.333 -6 43c-6 12.667 -18 19 -36 19h-571c-20 0 -33 -5 -39 -15c-4 -6 -6 -17 -6 -33v-246c0 -41.333 14.667 -62 44 -62h570c19.333 0 32.333 5.33301 39 16c3.33301 6.66699 5 18.667 5 36v242z" />
    <glyph glyph-name="P" unicode="P" horiz-adv-x="1167" 
d="M52 741v-741h198v273h686c88 0 145.333 23 172 69c16 28 24 83.333 24 166c0 84.667 -8 140.667 -24 168c-26 43.333 -83.333 65 -172 65h-884zM936 550c0 -30.667 -2.00098 -52 -6.00098 -64c-7.33301 -20 -22.666 -30 -45.999 -30h-634v94h686z" />
    <glyph glyph-name="Q" unicode="Q" horiz-adv-x="1195" 
d="M266 0c-70 0 -126.667 20.333 -170 61c-44.667 41.333 -67 95.666 -67 162.999c0 197.333 0.333008 298.333 1 303c5.33301 61.333 29.333 112 72 152c44 40.667 99 61 165 61h570c75.333 0 134 -22 176 -66c39.333 -41.333 59 -97.666 59 -168.999v-312h77v-193h-883z
M266 550c-27.333 -0.666992 -42.333 -16.667 -45 -48v-246c0 -41.333 14.667 -62 44 -62h570c19.333 0 32.333 5.33301 39 16c3.33301 6.66699 5 18.667 5 36v242c0 20 -2 34.333 -6 43c-6 12.667 -18 19 -36 19h-571z" />
    <glyph glyph-name="R" unicode="R" horiz-adv-x="1151" 
d="M51 0h194v276h652l33 -276h195l-35 276c0 18.667 -16.333 52 -49 100c28 40.667 42 83.667 42 129c0 98 -7.66699 159 -23 183c-22 34 -76.333 51 -163 51h-845zM245 550h652c0 -58.667 -14.667 -88 -44 -88h-608v88z" />
    <glyph glyph-name="S" unicode="S" horiz-adv-x="1220" 
d="M293 461c-22 0 -36.665 10.001 -43.998 30.001c-4 12 -6 32 -6 60h881v188h-831c-106 0 -176.667 -21.333 -212 -64c-26.667 -32 -40 -89.333 -40 -172c0 -75.333 15.667 -130.333 47 -165c39.333 -43.333 107.666 -65 204.999 -65h690
c-0.666992 -30.667 -3.66699 -51.334 -9 -62.001c-8.66699 -17.333 -26.334 -26 -53.001 -26h-833v-185h837c98.667 -0 167 21.333 205 64c29.333 33.333 44 87.666 44 162.999c0 76.667 -14.667 132.334 -44 167.001c-38 44.667 -107 67 -207 67h-630z" />
    <glyph glyph-name="T" unicode="T" 
d="M498 608c-125.333 5.33301 -234.669 59.667 -328.002 163c-40 -82 -23 -152.667 51 -212c-27.333 2 -52.666 8.33301 -75.999 19c6.66699 -80.667 50 -131.667 130 -153c-18.667 -9.33301 -42.667 -11 -72 -5c20.667 -62.667 69.667 -99.667 147 -111
c-66 -52 -143 -73.667 -231 -65c203.333 -105.333 373 -98.333 509 21c136.667 119.333 197 246.333 181 381c36.667 24 64.334 51.667 83.001 83c-30 -16 -61.667 -24.667 -95 -26c34.667 19.333 58.667 48.333 72 87c-25.333 -16 -59.333 -29 -102 -39
c-64.667 55.333 -130.667 64.333 -198 27c-61.333 -37.333 -85 -94 -71 -170zM999.997 0.000976562h-1000v1000h1000v-1000z" />
    <glyph glyph-name="U" unicode="U" horiz-adv-x="1154" 
d="M911 740h192v-516c0 -70.667 -21.333 -126 -64 -166c-42 -38.667 -99 -58 -171 -58h-571c-70 0 -126.667 20 -170 60c-44 41.333 -66 96 -66 164v516h191v-484c0 -41.333 14.667 -62 44 -62h570c19.333 0 32.333 5.33301 39 16c3.33301 6.66699 5 18.667 5 36z" />
    <glyph glyph-name="V" unicode="V" horiz-adv-x="1021" 
d="M-2 739l299.999 -573c59.333 -115.333 129.333 -173 210 -173c49.333 0 91.333 17 126 51c24.667 23.333 52.334 64 83.001 122l304 573h-212l-301 -554l-295 554h-215z" />
    <glyph glyph-name="W" unicode="W" horiz-adv-x="1202" 
d="M0 739l112.002 -590.002c18 -99.333 79 -149 183 -149c96.667 0 160 49.667 190 149l122 401l114 -401c28.667 -99.333 90.667 -149 186 -149c47.333 0 87.666 13 120.999 39c33.333 26.667 54.333 63.334 63 110.001l109 590h-188l-104 -535l-122 406
c-12.667 42.667 -35.334 77.334 -68.001 104.001c-33.333 27.333 -70.333 41 -111 41c-94 0 -155.667 -48.333 -185 -145l-124 -406l-102 535h-196z" />
    <glyph glyph-name="X" unicode="X" horiz-adv-x="1109" 
d="M39 738h243l194 -221c48.667 -57.333 75 -93 79 -107v-85c-2.66699 -8 -29 -41.667 -79 -101l-194 -224h-243l315 367zM1072 0h-243l-194 224c-50 59.333 -76.333 93 -79 101v85c4 14 30.333 49.667 79 107l194 221h243l-315 -371z" />
    <glyph glyph-name="Y" unicode="Y" horiz-adv-x="1129" 
d="M892 306c-18.667 -1.33301 -32.667 -2 -42 -2h-571c-70 0 -126.667 20 -170 60c-44 41.333 -66 96 -66 164v212h191v-180c0 -41.333 14.667 -62 44 -62h570c27.333 0 42.333 12.667 45 38v204h192v-516c0 -70.667 -21.333 -126 -64 -166c-42 -38.667 -99 -58 -171 -58
h-572v194h570c19.333 0 32.333 5.33301 39 16c3.33301 6.66699 5 18.667 5 36v60z" />
    <glyph glyph-name="Z" unicode="Z" horiz-adv-x="1238" 
d="M72 740l0.000976562 -188h906l-753 -163c-84.667 -26 -138.334 -53 -161.001 -81c-15.333 -19.333 -23 -54.666 -23 -105.999c0 -73.333 10 -122 30 -146c30 -37.333 96.667 -56 200 -56h889v196h-870l749 163c47.333 10 85 31.333 113 64
c29.333 33.333 44 72.666 44 117.999c0 70 -8.33301 117 -25 141c-26.667 38.667 -84.667 58 -174 58h-925z" />
    <glyph glyph-name="backslash" unicode="\" horiz-adv-x="1051" 
d="M293 740l740 -740h-260l-739 740h259z" />
    <glyph glyph-name="a" unicode="a" horiz-adv-x="1070" 
d="M1030 577c0 60 -19 105 -57 135c-32.667 25.333 -76 38 -130 38s-104.667 -23.333 -152 -70l-691 -680h293l189 190h361v-190h187v577zM843 349h-202l202 203v-203z" />
    <glyph glyph-name="b" unicode="b" horiz-adv-x="1157" 
d="M51 0h821c106 -0 176.333 21.333 211 64c24.667 30.667 37 85.667 37 165c0 38.667 -19.333 86.667 -58 144c28 28 42 74 42 138c0 82.667 -9.66699 137.667 -29 165c-31.333 43.333 -99.333 65 -204 65h-819zM247 467v83h617c19.333 0 32 -8.33301 38 -25
c3.33301 -10 5 -29.333 5 -58h-660zM247 191v85h660c-0.666992 -30 -2.66699 -50 -6 -60c-6 -17.333 -18.333 -26 -37 -26z" />
    <glyph glyph-name="c" unicode="c" horiz-adv-x="1147" 
d="M1098 195v-193.999h-815c-70 0 -126.667 20 -170 60c-44 41.333 -66 96 -66 164v303c5.33301 61.333 29.333 111.666 72 150.999c44 40.667 99 61 165 61h812v-189h-813c-20 0 -33 -5 -39 -15c-4 -6 -6 -17 -6 -33v-246c0 -41.333 14.667 -62 44 -62h816z" />
    <glyph glyph-name="d" unicode="d" horiz-adv-x="1131" 
d="M50 740l807 -0.000976562c70 0 126.667 -20 170 -60c44.667 -41.333 67 -96 67 -164v-303c-5.33301 -61.333 -29 -111.666 -71 -150.999c-44 -41.333 -99 -62 -165 -62h-808v740zM240 189.999h618c20 0 33 5 39 15c4 6 6 17 6 33v246c0 41.333 -14.667 62 -44 62h-619
v-356z" />
    <glyph glyph-name="e" unicode="e" horiz-adv-x="1123" 
d="M284 739c-67.333 0 -123.667 -22.667 -169 -68c-45.333 -46 -68 -102 -68 -168v-268c0 -70.667 22 -127.667 66 -171c43.333 -42.667 100.333 -64 171 -64h799v193h-799c-29.333 0 -44 21 -44 63v17h843v191h-844v24c0 41.333 15 62 45 62h799v190z" />
    <glyph glyph-name="f" unicode="f" horiz-adv-x="1148" 
d="M289 739c-67.333 0 -123.667 -22.667 -169 -68c-45.333 -46 -68 -102 -68 -168v-503h193v273h843v191h-844v24c0 41.333 15 62 45 62h799v190z" />
    <glyph glyph-name="g" unicode="g" 
d="M667 630v-76h-76v-84h76v-77h84v77h77v84h-77v76h-84zM0 1000h1000v-1000h-1000v1000zM321 260c-18 12 -28.6689 30 -32.002 54c0.666992 24 12.334 42.333 35.001 55c25.333 13.333 63.333 20 114 20c5.33301 -5.33301 12 -10.333 20 -15c4 -4 13 -11 27 -21h1
c12.667 -10.667 21.334 -25 26.001 -43c0 -20.667 -7.33301 -36.667 -22 -48v0v0c-18 -13.333 -44 -20.333 -78 -21c-38.667 -1.33301 -69 5 -91 19v0zM240.998 569l0.000976562 -1.00391v0c26 -43.333 70.333 -66.333 133 -69c-2 -16.667 0.333008 -32 7 -46
c-143.333 -18.667 -211.333 -73 -204 -163v-2c10 -82.667 80 -124 210 -124c70 0.666992 124.333 18.334 163 53.001h-1c37.333 32 56.666 73 57.999 123c2.66699 50.667 -26 95.334 -86 134.001v0l-1 1c-18 9.33301 -28 19.333 -30 30v1c0.666992 10 13 24 37 42l1 1
c36.667 28.667 53 67.334 49 116.001c-2 28.667 -9.33301 53.334 -22 74.001h10l100 78v1h-259c-70 -1.33301 -122.667 -28.333 -158 -81c-36.667 -54 -39 -110 -7 -168zM419.999 728.996c18.667 -16 31.6641 -37 38.9971 -63s7 -49.667 -1 -71
c-7.33301 -18.667 -18.666 -30 -33.999 -34c-16.667 -3.33301 -33 2 -49 16v0c-19.333 15.333 -32.666 36 -39.999 62c-7.33301 25.333 -6.66602 49 2.00098 71v0c6.66699 18.667 17.667 30 33 34h1c16 3.33301 32 -1.66699 48 -15h1z" />
    <glyph glyph-name="h" unicode="h" horiz-adv-x="1157" 
d="M55 740v-740h194v279h665v-279h196v740h-193v-273h-669v273h-193z" />
    <glyph glyph-name="i" unicode="i" horiz-adv-x="300" 
d="M48 740v-740h206v740h-206z" />
    <glyph glyph-name="j" unicode="j" horiz-adv-x="891" 
d="M662 740h193v-516c0 -70.667 -21.333 -126 -64 -166c-42 -38.667 -99 -58 -171 -58h-572v194h570c19.333 0 32.333 5.33301 39 16c3.33301 6.66699 5 18.667 5 36v494z" />
    <glyph glyph-name="k" unicode="k" horiz-adv-x="1139" 
d="M253 420c20 43.333 64.667 85.999 134 127.999l321 191h382l-634 -371l640 -368h-387l-334 191c-62 34.667 -102.667 75.334 -122 122.001v-313h-206v739h206v-319z" />
    <glyph glyph-name="l" unicode="l" horiz-adv-x="896" 
d="M847 194v-194h-570c-70 0 -126.667 20 -170 60c-44 41.333 -66 96 -66 164v516h191v-484c0 -41.333 14.667 -62 44 -62h571z" />
    <glyph glyph-name="m" unicode="m" horiz-adv-x="1201" 
d="M235 542l175.001 -386c52 -116.667 116 -175 192 -175c49.333 0 88.666 15.667 117.999 47c21.333 22 46.333 64.333 75 127l177 387v-542h179v542c0 53.333 -16.333 99 -49 137c-34.667 40.667 -78 61 -130 61c-87.333 0 -158.333 -66 -213 -198l-157 -375l-154 375
c-54 132 -125 198 -213 198c-48.667 0 -91 -21 -127 -63c-34 -40 -51 -85 -51 -135v-542h178v542z" />
    <glyph glyph-name="n" unicode="n" horiz-adv-x="1127" 
d="M51 0h186.999v552l451 -440c91.333 -80 159.333 -120 204 -120c51.333 0 95.333 19.333 132 58c37.333 39.333 56 88 56 146v544h-188v-544l-503 484c-47.333 46.667 -98 70 -152 70c-49.333 0 -92.666 -17 -129.999 -51c-38 -34.667 -57 -76 -57 -124v-575z" />
    <glyph glyph-name="o" unicode="o" horiz-adv-x="1134" 
d="M1091 224c0 -70.667 -21.333 -126.001 -64 -166.001c-42 -38.667 -99 -58 -171 -58h-571c-70 0 -126.667 20 -170 60c-44 41.333 -66 96 -66 164v303c5.33301 61.333 29.333 112 72 152c44 40.667 99 61 165 61h570c75.333 0 134 -22 176 -66
c39.333 -41.333 59 -97.666 59 -168.999v-281zM898 487.999c0 20 -2 34.333 -6 43c-6 12.667 -18 19 -36 19h-571c-20 0 -33 -5 -39 -15c-4 -6 -6 -17 -6 -33v-246c0 -41.333 14.667 -62 44 -62h570c19.333 0 32.333 5.33301 39 16c3.33301 6.66699 5 18.667 5 36v242z" />
    <glyph glyph-name="p" unicode="p" horiz-adv-x="1167" 
d="M52 741v-741h198v273h686c88 0 145.333 23 172 69c16 28 24 83.333 24 166c0 84.667 -8 140.667 -24 168c-26 43.333 -83.333 65 -172 65h-884zM936 550c0 -30.667 -2.00098 -52 -6.00098 -64c-7.33301 -20 -22.666 -30 -45.999 -30h-634v94h686z" />
    <glyph glyph-name="q" unicode="q" horiz-adv-x="1195" 
d="M266 0c-70 0 -126.667 20.333 -170 61c-44.667 41.333 -67 95.666 -67 162.999c0 197.333 0.333008 298.333 1 303c5.33301 61.333 29.333 112 72 152c44 40.667 99 61 165 61h570c75.333 0 134 -22 176 -66c39.333 -41.333 59 -97.666 59 -168.999v-312h77v-193h-883z
M266 550c-27.333 -0.666992 -42.333 -16.667 -45 -48v-246c0 -41.333 14.667 -62 44 -62h570c19.333 0 32.333 5.33301 39 16c3.33301 6.66699 5 18.667 5 36v242c0 20 -2 34.333 -6 43c-6 12.667 -18 19 -36 19h-571z" />
    <glyph glyph-name="r" unicode="r" horiz-adv-x="1151" 
d="M51 0h194v276h652l33 -276h195l-35 276c0 18.667 -16.333 52 -49 100c28 40.667 42 83.667 42 129c0 98 -7.66699 159 -23 183c-22 34 -76.333 51 -163 51h-845zM245 550h652c0 -58.667 -14.667 -88 -44 -88h-608v88z" />
    <glyph glyph-name="s" unicode="s" horiz-adv-x="1220" 
d="M293 461c-22 0 -36.665 10.001 -43.998 30.001c-4 12 -6 32 -6 60h881v188h-831c-106 0 -176.667 -21.333 -212 -64c-26.667 -32 -40 -89.333 -40 -172c0 -75.333 15.667 -130.333 47 -165c39.333 -43.333 107.666 -65 204.999 -65h690
c-0.666992 -30.667 -3.66699 -51.334 -9 -62.001c-8.66699 -17.333 -26.334 -26 -53.001 -26h-833v-185h837c98.667 -0 167 21.333 205 64c29.333 33.333 44 87.666 44 162.999c0 76.667 -14.667 132.334 -44 167.001c-38 44.667 -107 67 -207 67h-630z" />
    <glyph glyph-name="t" unicode="t" horiz-adv-x="1141" 
d="M49 548h433v-548h186v550h430v189h-1049v-191z" />
    <glyph glyph-name="u" unicode="u" horiz-adv-x="1154" 
d="M911 740h192v-516c0 -70.667 -21.333 -126 -64 -166c-42 -38.667 -99 -58 -171 -58h-571c-70 0 -126.667 20 -170 60c-44 41.333 -66 96 -66 164v516h191v-484c0 -41.333 14.667 -62 44 -62h570c19.333 0 32.333 5.33301 39 16c3.33301 6.66699 5 18.667 5 36z" />
    <glyph glyph-name="v" unicode="v" horiz-adv-x="1021" 
d="M-2 739l299.999 -573c59.333 -115.333 129.333 -173 210 -173c49.333 0 91.333 17 126 51c24.667 23.333 52.334 64 83.001 122l304 573h-212l-301 -554l-295 554h-215z" />
    <glyph glyph-name="w" unicode="w" horiz-adv-x="1202" 
d="M0 739l112.002 -590.002c18 -99.333 79 -149 183 -149c96.667 0 160 49.667 190 149l122 401l114 -401c28.667 -99.333 90.667 -149 186 -149c47.333 0 87.666 13 120.999 39c33.333 26.667 54.333 63.334 63 110.001l109 590h-188l-104 -535l-122 406
c-12.667 42.667 -35.334 77.334 -68.001 104.001c-33.333 27.333 -70.333 41 -111 41c-94 0 -155.667 -48.333 -185 -145l-124 -406l-102 535h-196z" />
    <glyph glyph-name="x" unicode="x" horiz-adv-x="1109" 
d="M39 738h243l194 -221c48.667 -57.333 75 -93 79 -107v-85c-2.66699 -8 -29 -41.667 -79 -101l-194 -224h-243l315 367zM1072 0h-243l-194 224c-50 59.333 -76.333 93 -79 101v85c4 14 30.333 49.667 79 107l194 221h243l-315 -371z" />
    <glyph glyph-name="y" unicode="y" horiz-adv-x="1129" 
d="M892 306c-18.667 -1.33301 -32.667 -2 -42 -2h-571c-70 0 -126.667 20 -170 60c-44 41.333 -66 96 -66 164v212h191v-180c0 -41.333 14.667 -62 44 -62h570c27.333 0 42.333 12.667 45 38v204h192v-516c0 -70.667 -21.333 -126 -64 -166c-42 -38.667 -99 -58 -171 -58
h-572v194h570c19.333 0 32.333 5.33301 39 16c3.33301 6.66699 5 18.667 5 36v60z" />
    <glyph glyph-name="z" unicode="z" horiz-adv-x="1238" 
d="M72 740l0.000976562 -188h906l-753 -163c-84.667 -26 -138.334 -53 -161.001 -81c-15.333 -19.333 -23 -54.666 -23 -105.999c0 -73.333 10 -122 30 -146c30 -37.333 96.667 -56 200 -56h889v196h-870l749 163c47.333 10 85 31.333 113 64
c29.333 33.333 44 72.666 44 117.999c0 70 -8.33301 117 -25 141c-26.667 38.667 -84.667 58 -174 58h-925z" />
    <glyph glyph-name="Adieresis" unicode="&#xc4;" horiz-adv-x="1070" 
d="M253 766v205h-215v-205h215zM617 766v205h-215v-205h215zM38 577c0 60 19.333 105 58 135c32 25.333 75 38 129 38s104.667 -23.333 152 -70l691 -680h-293l-189 190h-361v-190h-187v577zM225 349h202l-202 203v-203z" />
    <glyph glyph-name="Odieresis" unicode="&#xd6;" horiz-adv-x="1134" 
d="M496 766v205h-215v-205h215zM860 766v205h-215v-205h215zM306 -1c-68.667 0 -127.668 21.666 -177.001 64.999c-51.333 44.667 -77 100.334 -77 167.001v274c0 64 22.667 119.333 68 166c44.667 46 97.334 69 158.001 69h591c61.333 0 114.333 -23.333 159 -70
s67 -102 67 -166v-274c0 -66 -25.333 -121.333 -76 -166c-49.333 -43.333 -108 -65 -176 -65h-537zM901.999 549.999h-657v-361h657v361z" />
    <glyph glyph-name="Udieresis" unicode="&#xdc;" horiz-adv-x="1154" 
d="M504 765v205h-215v-205h215zM868 765v205h-215v-205h215zM51 740v-524.001c0 -61.333 22 -112.666 66 -153.999c44 -40.667 98 -61 162 -61h610c62.667 0 115 20.667 157 62c42.667 41.333 64 92.333 64 153v524h-196v-554h-671v554h-192z" />
    <glyph glyph-name="adieresis" unicode="&#xe4;" horiz-adv-x="1066" 
d="M815 766v205h215v-205h-215zM451 766v205h215v-205h-215zM1030 577c0 60 -19 105 -57 135c-32.667 25.333 -76 38 -130 38s-104.667 -23.333 -152 -70l-691 -680h293l189 190h361v-190h187v577zM843 349h-202l202 203v-203z" />
    <glyph glyph-name="odieresis" unicode="&#xf6;" horiz-adv-x="1134" 
d="M496 766v205h-215v-205h215zM860 766v205h-215v-205h215zM306 -1c-68.667 0 -127.668 21.666 -177.001 64.999c-51.333 44.667 -77 100.334 -77 167.001v274c0 64 22.667 119.333 68 166c44.667 46 97.334 69 158.001 69h591c61.333 0 114.333 -23.333 159 -70
s67 -102 67 -166v-274c0 -66 -25.333 -121.333 -76 -166c-49.333 -43.333 -108 -65 -176 -65h-537zM901.999 549.999h-657v-361h657v361z" />
    <glyph glyph-name="udieresis" unicode="&#xfc;" horiz-adv-x="1154" 
d="M504 765v205h-215v-205h215zM868 765v205h-215v-205h215zM51 740v-524.001c0 -61.333 22 -112.666 66 -153.999c44 -40.667 98 -61 162 -61h610c62.667 0 115 20.667 157 62c42.667 41.333 64 92.333 64 153v524h-196v-554h-671v554h-192z" />
    <glyph glyph-name="endash" unicode="&#x2013;" horiz-adv-x="654" 
d="M604 271v205h-557v-205h557z" />
    <glyph glyph-name="emdash" unicode="&#x2014;" horiz-adv-x="827" 
d="M807 254v149h-774v-149h774z" />
    <glyph glyph-name="quotedblleft" unicode="&#x201c;" horiz-adv-x="506" 
d="M188 593h58.001v145c-12 3.33301 -23.667 5 -35 5c-42.667 0 -82.334 -16 -119.001 -48c-37.333 -34 -56 -72.333 -56 -115v-199h207v149h-55v63zM425.001 593h58.001v145c-12 3.33301 -23.667 5 -35 5c-42.667 0 -82.334 -16 -119.001 -48
c-37.333 -34 -56 -72.333 -56 -115v-199h207v149h-55v63z" />
    <glyph glyph-name="quotedblright" unicode="&#x201d;" horiz-adv-x="505" 
d="M326 527h-58.001v-145c12 -3.33301 23.667 -5 35 -5c42.667 0 82.334 16.333 119.001 49c37.333 33.333 56 71.333 56 114v199h-207v-149h55v-63zM88.999 527h-58.001v-145c12 -3.33301 23.667 -5 35 -5c42.667 0 82.334 16.333 119.001 49
c37.333 33.333 56 71.333 56 114v199h-207v-149h55v-63z" />
    <glyph glyph-name="Euro" unicode="&#x20ac;" horiz-adv-x="1221" 
d="M1171 553l-843 0.000976562l-15 -27h366v-149h-366v-25h366v-149h-366l15 -19h844v-184h-808c-158.667 0 -238 67.667 -238 203h-82v149h77v25h-77v149h81v4c0 73.333 16 125.666 48 156.999c36 35.333 99.667 53 191 53h807v-187z" />
    <glyph glyph-name="glyph97" horiz-adv-x="0" 
 />
    <glyph glyph-name="glyph98" horiz-adv-x="500" 
 />
  </font>
</defs>
</svg>
